<svg xmlns="http://www.w3.org/2000/svg" xmlns:xlink="http://www.w3.org/1999/xlink" width="600" zoomAndPan="magnify" viewBox="0 0 450 112.499997" height="150" preserveAspectRatio="xMidYMid meet" version="1.0"><defs><g/><clipPath id="6d562bf2dc"><path d="M 11 10 L 95 10 L 95 103.683594 L 11 103.683594 Z M 11 10 " clip-rule="nonzero"/></clipPath></defs><g clip-path="url(#6d562bf2dc)"><path fill="#1a2b3c" d="M 76.261719 55.710938 C 76.210938 65.210938 76.414062 74.734375 76.132812 84.214844 L 76.402344 84.28125 C 76.417969 84.164062 76.457031 84.03125 76.535156 83.945312 C 85.152344 74.921875 89.195312 66.539062 87.988281 53.675781 C 87.125 44.484375 83.433594 37.269531 77.363281 30.492188 C 75.34375 28.238281 72.832031 26.542969 70.40625 24.765625 L 70.40625 18.289062 C 81.96875 22.777344 89.574219 34.890625 92.558594 46.511719 C 96.667969 62.527344 92.582031 74.164062 81.925781 86.054688 C 74.097656 94.792969 64.0625 100.476562 52.613281 103.109375 L 40.8125 97.996094 L 40.824219 24.695312 C 48.117188 27.152344 53.675781 32.914062 58.410156 38.738281 L 58.410156 17.742188 L 52.960938 15.484375 C 52.847656 15.449219 52.738281 15.414062 52.628906 15.382812 C 52.574219 15.394531 52.488281 15.417969 52.378906 15.449219 C 52.378906 15.449219 50.890625 15.984375 49.363281 16.671875 C 35.917969 22.6875 23.597656 31.921875 18.976562 46.542969 C 14.773438 59.839844 19.199219 74.53125 29.152344 83.964844 C 29.207031 83.078125 29.082031 81.238281 29.101562 79.585938 C 29.109375 78.996094 29.109375 78.550781 29.109375 78.355469 C 29.105469 76.949219 29.039062 59.738281 28.96875 40.71875 L 34.960938 34.785156 L 34.828125 93.824219 C 22.75 87.96875 13.890625 76.699219 12.21875 63.195312 C 9.78125 43.507812 21.75 25.851562 38.367188 16.582031 C 42.9375 14.03125 47.722656 11.703125 52.730469 10.148438 C 56.71875 11.242188 60.839844 12.449219 64.386719 14.5625 L 64.539062 64.160156 L 64.273438 64.308594 L 58.898438 58.476562 C 58.285156 50.125 54.761719 40.933594 47.839844 35.746094 C 47.496094 35.488281 46.777344 34.875 46.347656 34.832031 C 46.347656 40.566406 46.679688 46.527344 46.675781 52.265625 C 46.734375 52.328125 46.789062 52.390625 46.847656 52.457031 C 46.929688 52.542969 47.007812 52.632812 47.089844 52.71875 L 69.996094 75.621094 L 70.40625 75.824219 C 70.375 58.683594 70.34375 51.308594 70.320312 47.914062 C 70.316406 47.074219 70.296875 44.476562 70.320312 40.984375 C 70.339844 38.253906 70.378906 36.035156 70.40625 34.648438 L 76.273438 40.433594 M 64.089844 84.347656 L 64.40625 93.488281 L 64.683594 93.632812 C 65.296875 93.230469 65.953125 92.902344 66.578125 92.519531 C 68.1875 91.539062 71.46875 89.433594 72.769531 88.21875 C 72.871094 88.125 73.042969 88.097656 72.992188 87.90625 L 46.6875 60.421875 C 47.078125 72.023438 46.542969 83.640625 46.679688 95.265625 C 48.679688 96.0625 50.675781 96.855469 52.675781 97.652344 C 54.613281 97.105469 56.546875 96.5625 58.484375 96.015625 L 58.230469 78.554688 Z M 64.089844 84.347656 " fill-opacity="1" fill-rule="nonzero"/></g><path fill="#1a2b3c" d="M 124.816406 16.222656 L 134.871094 16.222656 L 134.871094 78.183594 L 124.816406 78.183594 Z M 124.816406 16.222656 " fill-opacity="1" fill-rule="nonzero"/><path fill="#1a2b3c" d="M 160.332031 78.023438 L 158.769531 78.023438 L 158.769531 16.058594 L 167.554688 16.058594 L 207.390625 61.738281 L 207.761719 16.058594 L 209.175781 16.058594 L 209.175781 77.941406 L 160.40625 23.550781 Z M 160.332031 78.023438 " fill-opacity="1" fill-rule="nonzero"/><path fill="#1a2b3c" d="M 234.863281 78.023438 L 233.296875 78.023438 L 233.296875 16.058594 L 242.085938 16.058594 L 281.917969 61.738281 L 282.289062 16.058594 L 283.703125 16.058594 L 283.703125 77.941406 L 234.933594 23.550781 L 234.859375 78.023438 Z M 234.863281 78.023438 " fill-opacity="1" fill-rule="nonzero"/><path fill="#1a2b3c" d="M 332.996094 79.648438 C 328.277344 79.648438 323.863281 78.808594 319.742188 77.125 C 315.621094 75.441406 312.007812 73.148438 308.90625 70.242188 C 305.804688 67.339844 303.375 63.933594 301.613281 60.023438 C 299.847656 56.117188 298.96875 51.964844 298.96875 47.566406 C 298.96875 43.167969 299.847656 38.964844 301.613281 35.109375 C 303.375 31.253906 305.804688 27.847656 308.90625 24.890625 C 312.007812 21.929688 315.621094 19.625 319.742188 17.96875 C 323.859375 16.3125 328.277344 15.484375 332.996094 15.484375 C 338.851562 15.539062 343.789062 16.585938 347.8125 18.621094 C 351.832031 20.65625 354.585938 22.976562 356.078125 25.582031 L 354.738281 26.3125 C 353.050781 23.761719 350.664062 21.699219 347.589844 20.125 C 343.914062 18.226562 340.070312 17.277344 336.046875 17.277344 C 332.324219 17.277344 328.789062 18.117188 325.4375 19.800781 C 322.089844 21.484375 319.320312 23.925781 317.136719 27.128906 C 314.953125 30.332031 313.328125 33.792969 312.261719 37.511719 C 311.191406 41.230469 310.660156 44.71875 310.660156 47.972656 C 310.660156 56.0625 313.140625 63.0625 318.105469 68.980469 C 323.566406 74.84375 329.71875 77.773438 336.570312 77.773438 C 339.75 77.773438 342.949219 77.082031 346.175781 75.699219 C 349.402344 74.3125 352.253906 72.535156 354.738281 70.363281 L 355.855469 71.339844 C 349.898438 76.878906 342.277344 79.648438 332.996094 79.648438 Z M 332.996094 79.648438 " fill-opacity="1" fill-rule="nonzero"/><path fill="#1a2b3c" d="M 420.707031 78.183594 L 410.875 78.183594 C 405.65625 67.320312 399.34375 54.066406 394.125 43.199219 C 392.984375 41.476562 390.878906 36.058594 386.675781 28.191406 L 363.300781 77.089844 C 363.132812 77.425781 362.964844 77.761719 362.800781 78.097656 C 362.59375 78.097656 362.378906 78.101562 362.167969 78.101562 C 361.949219 78.101562 361.730469 78.101562 361.511719 78.101562 L 390.773438 16.21875 Z M 420.707031 78.183594 " fill-opacity="1" fill-rule="nonzero"/><path stroke-linecap="butt" transform="matrix(0.17918, 0, 0, 0.17918, -15.598659, -175.586803)" fill="none" stroke-linejoin="miter" d="M 2139.869639 1350.576765 C 2143.008931 1345.69342 2147.238256 1339.32763 2152.557614 1332.089815 C 2157.724366 1325.026405 2169.36591 1309.787753 2186.95903 1291.627813 C 2202.284883 1275.800543 2213.643019 1264.224399 2231.802956 1252.016036 C 2242.594275 1244.75642 2259.598777 1233.485485 2284.691319 1226.24767 C 2304.813314 1220.426897 2322.319231 1219.467669 2334.309585 1219.642074 " stroke="#1a2b3c" stroke-width="7.59" stroke-opacity="1" stroke-miterlimit="10"/><path stroke-linecap="butt" transform="matrix(0.17918, 0, 0, 0.17918, -15.598659, -175.586803)" fill-opacity="1" fill="#1a2b3c" fill-rule="nonzero" stroke-linejoin="miter" d="M 2139.738835 1357.400367 L 2142.180507 1352.342617 L 2142.180507 1352.146411 L 2142.96533 1352.538823 L 2142.856327 1352.691428 Z M 2139.738835 1357.400367 " stroke="#1a2b3c" stroke-width="0.22" stroke-opacity="1" stroke-miterlimit="10"/><g fill="#1a2b3c" fill-opacity="1"><g transform="translate(122.918608, 99.70426)"><g><path d="M 0.421875 0 L 0.421875 -0.375 L 1.625 -0.5625 L 1.625 -8.875 L 0.421875 -9.0625 L 0.421875 -9.4375 L 4.1875 -9.4375 L 4.1875 -9.0625 L 2.984375 -8.875 L 2.984375 -5.171875 L 7.421875 -5.171875 L 7.421875 -8.875 L 6.21875 -9.0625 L 6.21875 -9.4375 L 9.984375 -9.4375 L 9.984375 -9.0625 L 8.765625 -8.875 L 8.765625 -0.5625 L 9.984375 -0.375 L 9.984375 0 L 6.21875 0 L 6.21875 -0.375 L 7.421875 -0.5625 L 7.421875 -4.53125 L 2.984375 -4.53125 L 2.984375 -0.5625 L 4.1875 -0.375 L 4.1875 0 Z M 0.421875 0 "/></g></g></g><g fill="#1a2b3c" fill-opacity="1"><g transform="translate(135.040747, 99.70426)"><g><path d="M 2.0625 -4.734375 C 2.0625 -3.210938 2.3125 -2.113281 2.8125 -1.4375 C 3.320312 -0.757812 4.117188 -0.421875 5.203125 -0.421875 C 6.273438 -0.421875 7.066406 -0.757812 7.578125 -1.4375 C 8.085938 -2.113281 8.34375 -3.210938 8.34375 -4.734375 C 8.34375 -6.234375 8.085938 -7.3125 7.578125 -7.96875 C 7.066406 -8.632812 6.273438 -8.96875 5.203125 -8.96875 C 4.117188 -8.96875 3.320312 -8.632812 2.8125 -7.96875 C 2.3125 -7.3125 2.0625 -6.234375 2.0625 -4.734375 Z M 0.59375 -4.734375 C 0.59375 -7.929688 2.128906 -9.53125 5.203125 -9.53125 C 6.722656 -9.53125 7.867188 -9.125 8.640625 -8.3125 C 9.421875 -7.5 9.8125 -6.304688 9.8125 -4.734375 C 9.8125 -3.128906 9.414062 -1.914062 8.625 -1.09375 C 7.84375 -0.269531 6.703125 0.140625 5.203125 0.140625 C 3.703125 0.140625 2.554688 -0.265625 1.765625 -1.078125 C 0.984375 -1.898438 0.59375 -3.117188 0.59375 -4.734375 Z M 0.59375 -4.734375 "/></g></g></g><g fill="#1a2b3c" fill-opacity="1"><g transform="translate(147.162887, 99.70426)"><g><path d="M 0.984375 -2.546875 L 1.4375 -2.546875 L 1.6875 -1.265625 C 1.851562 -1.046875 2.148438 -0.847656 2.578125 -0.671875 C 3.003906 -0.503906 3.421875 -0.421875 3.828125 -0.421875 C 4.484375 -0.421875 4.992188 -0.585938 5.359375 -0.921875 C 5.734375 -1.265625 5.921875 -1.734375 5.921875 -2.328125 C 5.921875 -2.660156 5.847656 -2.9375 5.703125 -3.15625 C 5.566406 -3.375 5.378906 -3.5625 5.140625 -3.71875 C 4.910156 -3.875 4.644531 -4.003906 4.34375 -4.109375 C 4.050781 -4.210938 3.75 -4.316406 3.4375 -4.421875 C 3.125 -4.535156 2.820312 -4.65625 2.53125 -4.78125 C 2.238281 -4.914062 1.972656 -5.082031 1.734375 -5.28125 C 1.503906 -5.476562 1.316406 -5.726562 1.171875 -6.03125 C 1.035156 -6.332031 0.96875 -6.695312 0.96875 -7.125 C 0.96875 -7.882812 1.25 -8.472656 1.8125 -8.890625 C 2.375 -9.316406 3.15625 -9.53125 4.15625 -9.53125 C 4.914062 -9.53125 5.738281 -9.429688 6.625 -9.234375 L 6.625 -7.28125 L 6.171875 -7.28125 L 5.921875 -8.421875 C 5.441406 -8.773438 4.851562 -8.953125 4.15625 -8.953125 C 3.519531 -8.953125 3.023438 -8.820312 2.671875 -8.5625 C 2.316406 -8.3125 2.140625 -7.957031 2.140625 -7.5 C 2.140625 -7.195312 2.210938 -6.941406 2.359375 -6.734375 C 2.503906 -6.535156 2.691406 -6.363281 2.921875 -6.21875 C 3.148438 -6.082031 3.414062 -5.960938 3.71875 -5.859375 C 4.019531 -5.753906 4.320312 -5.644531 4.625 -5.53125 C 4.9375 -5.425781 5.242188 -5.300781 5.546875 -5.15625 C 5.847656 -5.019531 6.113281 -4.84375 6.34375 -4.625 C 6.570312 -4.414062 6.757812 -4.15625 6.90625 -3.84375 C 7.050781 -3.539062 7.125 -3.164062 7.125 -2.71875 C 7.125 -1.8125 6.84375 -1.109375 6.28125 -0.609375 C 5.71875 -0.109375 4.914062 0.140625 3.875 0.140625 C 3.363281 0.140625 2.851562 0.09375 2.34375 0 C 1.832031 -0.0820312 1.378906 -0.203125 0.984375 -0.359375 Z M 0.984375 -2.546875 "/></g></g></g><g fill="#1a2b3c" fill-opacity="1"><g transform="translate(156.895688, 99.70426)"><g><path d="M 6.03125 -6.640625 C 6.03125 -7.410156 5.847656 -7.960938 5.484375 -8.296875 C 5.128906 -8.628906 4.523438 -8.796875 3.671875 -8.796875 L 2.984375 -8.796875 L 2.984375 -4.328125 L 3.71875 -4.328125 C 4.507812 -4.328125 5.09375 -4.507812 5.46875 -4.875 C 5.84375 -5.238281 6.03125 -5.828125 6.03125 -6.640625 Z M 2.984375 -3.703125 L 2.984375 -0.5625 L 4.484375 -0.375 L 4.484375 0 L 0.5 0 L 0.5 -0.375 L 1.625 -0.5625 L 1.625 -8.875 L 0.421875 -9.0625 L 0.421875 -9.4375 L 3.96875 -9.4375 C 6.28125 -9.4375 7.4375 -8.507812 7.4375 -6.65625 C 7.4375 -5.6875 7.144531 -4.953125 6.5625 -4.453125 C 5.976562 -3.953125 5.140625 -3.703125 4.046875 -3.703125 Z M 2.984375 -3.703125 "/></g></g></g><g fill="#1a2b3c" fill-opacity="1"><g transform="translate(166.628489, 99.70426)"><g><path d="M 3.078125 -0.5625 L 4.296875 -0.375 L 4.296875 0 L 0.515625 0 L 0.515625 -0.375 L 1.734375 -0.5625 L 1.734375 -8.875 L 0.515625 -9.0625 L 0.515625 -9.4375 L 4.296875 -9.4375 L 4.296875 -9.0625 L 3.078125 -8.875 Z M 3.078125 -0.5625 "/></g></g></g><g fill="#1a2b3c" fill-opacity="1"><g transform="translate(173.149738, 99.70426)"><g><path d="M 2.21875 0 L 2.21875 -0.375 L 3.71875 -0.5625 L 3.71875 -8.828125 L 3.359375 -8.828125 C 2.171875 -8.828125 1.359375 -8.78125 0.921875 -8.6875 L 0.734375 -7.21875 L 0.265625 -7.21875 L 0.265625 -9.4375 L 8.5625 -9.4375 L 8.5625 -7.21875 L 8.078125 -7.21875 L 7.890625 -8.6875 C 7.753906 -8.71875 7.445312 -8.742188 6.96875 -8.765625 C 6.5 -8.796875 5.984375 -8.8125 5.421875 -8.8125 L 5.078125 -8.8125 L 5.078125 -0.5625 L 6.5625 -0.375 L 6.5625 0 Z M 2.21875 0 "/></g></g></g><g fill="#1a2b3c" fill-opacity="1"><g transform="translate(182.516587, 99.70426)"><g><path d="M 3.25 -0.375 L 3.25 0 L 0.140625 0 L 0.140625 -0.375 L 1.203125 -0.5625 L 4.421875 -9.515625 L 5.765625 -9.515625 L 9.109375 -0.5625 L 10.296875 -0.375 L 10.296875 0 L 6.3125 0 L 6.3125 -0.375 L 7.578125 -0.5625 L 6.640625 -3.28125 L 2.921875 -3.28125 L 1.984375 -0.5625 Z M 4.75 -8.5 L 3.140625 -3.921875 L 6.421875 -3.921875 Z M 4.75 -8.5 "/></g></g></g><g fill="#1a2b3c" fill-opacity="1"><g transform="translate(194.638726, 99.70426)"><g><path d="M 4.4375 -9.0625 L 2.984375 -8.875 L 2.984375 -0.609375 L 4.84375 -0.609375 C 5.84375 -0.609375 6.578125 -0.65625 7.046875 -0.75 L 7.484375 -2.703125 L 7.9375 -2.703125 L 7.8125 0 L 0.421875 0 L 0.421875 -0.375 L 1.625 -0.5625 L 1.625 -8.875 L 0.421875 -9.0625 L 0.421875 -9.4375 L 4.4375 -9.4375 Z M 4.4375 -9.0625 "/></g></g></g><g fill="#1a2b3c" fill-opacity="1"><g transform="translate(205.158603, 99.70426)"><g><path d="M 3.078125 -0.5625 L 4.296875 -0.375 L 4.296875 0 L 0.515625 0 L 0.515625 -0.375 L 1.734375 -0.5625 L 1.734375 -8.875 L 0.515625 -9.0625 L 0.515625 -9.4375 L 4.296875 -9.4375 L 4.296875 -9.0625 L 3.078125 -8.875 Z M 3.078125 -0.5625 "/></g></g></g><g fill="#1a2b3c" fill-opacity="1"><g transform="translate(211.679852, 99.70426)"><g><path d="M 2.21875 0 L 2.21875 -0.375 L 3.71875 -0.5625 L 3.71875 -8.828125 L 3.359375 -8.828125 C 2.171875 -8.828125 1.359375 -8.78125 0.921875 -8.6875 L 0.734375 -7.21875 L 0.265625 -7.21875 L 0.265625 -9.4375 L 8.5625 -9.4375 L 8.5625 -7.21875 L 8.078125 -7.21875 L 7.890625 -8.6875 C 7.753906 -8.71875 7.445312 -8.742188 6.96875 -8.765625 C 6.5 -8.796875 5.984375 -8.8125 5.421875 -8.8125 L 5.078125 -8.8125 L 5.078125 -0.5625 L 6.5625 -0.375 L 6.5625 0 Z M 2.21875 0 "/></g></g></g><g fill="#1a2b3c" fill-opacity="1"><g transform="translate(222.199729, 99.70426)"><g><path d="M 5.890625 -3.71875 L 5.890625 -0.5625 L 7.390625 -0.375 L 7.390625 0 L 3.03125 0 L 3.03125 -0.375 L 4.53125 -0.5625 L 4.53125 -3.671875 L 1.21875 -8.875 L 0.15625 -9.0625 L 0.15625 -9.4375 L 4.15625 -9.4375 L 4.15625 -9.0625 L 2.890625 -8.875 L 5.59375 -4.515625 L 8.171875 -8.875 L 6.96875 -9.0625 L 6.96875 -9.4375 L 10.03125 -9.4375 L 10.03125 -9.0625 L 9 -8.875 Z M 5.890625 -3.71875 "/></g></g></g><g fill="#1a2b3c" fill-opacity="1"><g transform="translate(233.787542, 99.70426)"><g/></g></g><g fill="#1a2b3c" fill-opacity="1"><g transform="translate(239.114122, 99.70426)"><g><path d="M 2.65625 -0.640625 C 2.65625 -0.410156 2.570312 -0.210938 2.40625 -0.046875 C 2.25 0.117188 2.046875 0.203125 1.796875 0.203125 C 1.554688 0.203125 1.351562 0.117188 1.1875 -0.046875 C 1.03125 -0.210938 0.953125 -0.410156 0.953125 -0.640625 C 0.953125 -0.878906 1.03125 -1.082031 1.1875 -1.25 C 1.351562 -1.414062 1.554688 -1.5 1.796875 -1.5 C 2.035156 -1.5 2.238281 -1.414062 2.40625 -1.25 C 2.570312 -1.082031 2.65625 -0.878906 2.65625 -0.640625 Z M 2.65625 -0.640625 "/></g></g></g><g fill="#1a2b3c" fill-opacity="1"><g transform="translate(244.440702, 99.70426)"><g/></g></g><g fill="#1a2b3c" fill-opacity="1"><g transform="translate(249.767282, 99.70426)"><g><path d="M 0.984375 -2.546875 L 1.4375 -2.546875 L 1.6875 -1.265625 C 1.851562 -1.046875 2.148438 -0.847656 2.578125 -0.671875 C 3.003906 -0.503906 3.421875 -0.421875 3.828125 -0.421875 C 4.484375 -0.421875 4.992188 -0.585938 5.359375 -0.921875 C 5.734375 -1.265625 5.921875 -1.734375 5.921875 -2.328125 C 5.921875 -2.660156 5.847656 -2.9375 5.703125 -3.15625 C 5.566406 -3.375 5.378906 -3.5625 5.140625 -3.71875 C 4.910156 -3.875 4.644531 -4.003906 4.34375 -4.109375 C 4.050781 -4.210938 3.75 -4.316406 3.4375 -4.421875 C 3.125 -4.535156 2.820312 -4.65625 2.53125 -4.78125 C 2.238281 -4.914062 1.972656 -5.082031 1.734375 -5.28125 C 1.503906 -5.476562 1.316406 -5.726562 1.171875 -6.03125 C 1.035156 -6.332031 0.96875 -6.695312 0.96875 -7.125 C 0.96875 -7.882812 1.25 -8.472656 1.8125 -8.890625 C 2.375 -9.316406 3.15625 -9.53125 4.15625 -9.53125 C 4.914062 -9.53125 5.738281 -9.429688 6.625 -9.234375 L 6.625 -7.28125 L 6.171875 -7.28125 L 5.921875 -8.421875 C 5.441406 -8.773438 4.851562 -8.953125 4.15625 -8.953125 C 3.519531 -8.953125 3.023438 -8.820312 2.671875 -8.5625 C 2.316406 -8.3125 2.140625 -7.957031 2.140625 -7.5 C 2.140625 -7.195312 2.210938 -6.941406 2.359375 -6.734375 C 2.503906 -6.535156 2.691406 -6.363281 2.921875 -6.21875 C 3.148438 -6.082031 3.414062 -5.960938 3.71875 -5.859375 C 4.019531 -5.753906 4.320312 -5.644531 4.625 -5.53125 C 4.9375 -5.425781 5.242188 -5.300781 5.546875 -5.15625 C 5.847656 -5.019531 6.113281 -4.84375 6.34375 -4.625 C 6.570312 -4.414062 6.757812 -4.15625 6.90625 -3.84375 C 7.050781 -3.539062 7.125 -3.164062 7.125 -2.71875 C 7.125 -1.8125 6.84375 -1.109375 6.28125 -0.609375 C 5.71875 -0.109375 4.914062 0.140625 3.875 0.140625 C 3.363281 0.140625 2.851562 0.09375 2.34375 0 C 1.832031 -0.0820312 1.378906 -0.203125 0.984375 -0.359375 Z M 0.984375 -2.546875 "/></g></g></g><g fill="#1a2b3c" fill-opacity="1"><g transform="translate(259.500083, 99.70426)"><g><path d="M 2.21875 0 L 2.21875 -0.375 L 3.71875 -0.5625 L 3.71875 -8.828125 L 3.359375 -8.828125 C 2.171875 -8.828125 1.359375 -8.78125 0.921875 -8.6875 L 0.734375 -7.21875 L 0.265625 -7.21875 L 0.265625 -9.4375 L 8.5625 -9.4375 L 8.5625 -7.21875 L 8.078125 -7.21875 L 7.890625 -8.6875 C 7.753906 -8.71875 7.445312 -8.742188 6.96875 -8.765625 C 6.5 -8.796875 5.984375 -8.8125 5.421875 -8.8125 L 5.078125 -8.8125 L 5.078125 -0.5625 L 6.5625 -0.375 L 6.5625 0 Z M 2.21875 0 "/></g></g></g><g fill="#1a2b3c" fill-opacity="1"><g transform="translate(270.01996, 99.70426)"><g><path d="M 8.15625 -8.875 L 6.890625 -9.0625 L 6.890625 -9.4375 L 10.09375 -9.4375 L 10.09375 -9.0625 L 8.890625 -8.875 L 8.890625 -3.25 C 8.890625 -2.113281 8.578125 -1.265625 7.953125 -0.703125 C 7.335938 -0.140625 6.4375 0.140625 5.25 0.140625 C 4 0.140625 3.0625 -0.140625 2.4375 -0.703125 C 1.820312 -1.265625 1.515625 -2.066406 1.515625 -3.109375 L 1.515625 -8.875 L 0.296875 -9.0625 L 0.296875 -9.4375 L 4.078125 -9.4375 L 4.078125 -9.0625 L 2.859375 -8.875 L 2.859375 -3.21875 C 2.859375 -1.5 3.691406 -0.640625 5.359375 -0.640625 C 6.253906 -0.640625 6.941406 -0.851562 7.421875 -1.28125 C 7.910156 -1.707031 8.15625 -2.34375 8.15625 -3.1875 Z M 8.15625 -8.875 "/></g></g></g><g fill="#1a2b3c" fill-opacity="1"><g transform="translate(282.142099, 99.70426)"><g><path d="M 8.359375 -4.78125 C 8.359375 -6.101562 8 -7.101562 7.28125 -7.78125 C 6.570312 -8.457031 5.5625 -8.796875 4.25 -8.796875 L 2.984375 -8.796875 L 2.984375 -0.65625 C 3.546875 -0.625 4.210938 -0.609375 4.984375 -0.609375 C 6.140625 -0.609375 6.988281 -0.945312 7.53125 -1.625 C 8.082031 -2.300781 8.359375 -3.351562 8.359375 -4.78125 Z M 4.703125 -9.4375 C 6.441406 -9.4375 7.726562 -9.046875 8.5625 -8.265625 C 9.40625 -7.492188 9.828125 -6.328125 9.828125 -4.765625 C 9.828125 -3.191406 9.421875 -2 8.609375 -1.1875 C 7.804688 -0.375 6.597656 0.03125 4.984375 0.03125 L 1.625 0 L 0.421875 0 L 0.421875 -0.375 L 1.625 -0.5625 L 1.625 -8.875 L 0.421875 -9.0625 L 0.421875 -9.4375 Z M 4.703125 -9.4375 "/></g></g></g><g fill="#1a2b3c" fill-opacity="1"><g transform="translate(294.264238, 99.70426)"><g><path d="M 3.078125 -0.5625 L 4.296875 -0.375 L 4.296875 0 L 0.515625 0 L 0.515625 -0.375 L 1.734375 -0.5625 L 1.734375 -8.875 L 0.515625 -9.0625 L 0.515625 -9.4375 L 4.296875 -9.4375 L 4.296875 -9.0625 L 3.078125 -8.875 Z M 3.078125 -0.5625 "/></g></g></g><g fill="#1a2b3c" fill-opacity="1"><g transform="translate(300.785487, 99.70426)"><g><path d="M 2.0625 -4.734375 C 2.0625 -3.210938 2.3125 -2.113281 2.8125 -1.4375 C 3.320312 -0.757812 4.117188 -0.421875 5.203125 -0.421875 C 6.273438 -0.421875 7.066406 -0.757812 7.578125 -1.4375 C 8.085938 -2.113281 8.34375 -3.210938 8.34375 -4.734375 C 8.34375 -6.234375 8.085938 -7.3125 7.578125 -7.96875 C 7.066406 -8.632812 6.273438 -8.96875 5.203125 -8.96875 C 4.117188 -8.96875 3.320312 -8.632812 2.8125 -7.96875 C 2.3125 -7.3125 2.0625 -6.234375 2.0625 -4.734375 Z M 0.59375 -4.734375 C 0.59375 -7.929688 2.128906 -9.53125 5.203125 -9.53125 C 6.722656 -9.53125 7.867188 -9.125 8.640625 -8.3125 C 9.421875 -7.5 9.8125 -6.304688 9.8125 -4.734375 C 9.8125 -3.128906 9.414062 -1.914062 8.625 -1.09375 C 7.84375 -0.269531 6.703125 0.140625 5.203125 0.140625 C 3.703125 0.140625 2.554688 -0.265625 1.765625 -1.078125 C 0.984375 -1.898438 0.59375 -3.117188 0.59375 -4.734375 Z M 0.59375 -4.734375 "/></g></g></g><g fill="#1a2b3c" fill-opacity="1"><g transform="translate(312.907627, 99.70426)"><g/></g></g><g fill="#1a2b3c" fill-opacity="1"><g transform="translate(318.234206, 99.70426)"><g><path d="M 2.65625 -0.640625 C 2.65625 -0.410156 2.570312 -0.210938 2.40625 -0.046875 C 2.25 0.117188 2.046875 0.203125 1.796875 0.203125 C 1.554688 0.203125 1.351562 0.117188 1.1875 -0.046875 C 1.03125 -0.210938 0.953125 -0.410156 0.953125 -0.640625 C 0.953125 -0.878906 1.03125 -1.082031 1.1875 -1.25 C 1.351562 -1.414062 1.554688 -1.5 1.796875 -1.5 C 2.035156 -1.5 2.238281 -1.414062 2.40625 -1.25 C 2.570312 -1.082031 2.65625 -0.878906 2.65625 -0.640625 Z M 2.65625 -0.640625 "/></g></g></g><g fill="#1a2b3c" fill-opacity="1"><g transform="translate(323.560798, 99.70426)"><g/></g></g><g fill="#1a2b3c" fill-opacity="1"><g transform="translate(328.887366, 99.70426)"><g><path d="M 2.984375 -4.140625 L 2.984375 -0.5625 L 4.40625 -0.375 L 4.40625 0 L 0.5 0 L 0.5 -0.375 L 1.625 -0.5625 L 1.625 -8.875 L 0.421875 -9.0625 L 0.421875 -9.4375 L 4.484375 -9.4375 C 5.671875 -9.4375 6.546875 -9.234375 7.109375 -8.828125 C 7.671875 -8.429688 7.953125 -7.796875 7.953125 -6.921875 C 7.953125 -6.285156 7.78125 -5.738281 7.4375 -5.28125 C 7.09375 -4.820312 6.617188 -4.503906 6.015625 -4.328125 L 8.5625 -0.5625 L 9.59375 -0.375 L 9.59375 0 L 7.328125 0 L 4.671875 -4.140625 Z M 6.546875 -6.8125 C 6.546875 -7.53125 6.367188 -8.039062 6.015625 -8.34375 C 5.671875 -8.644531 5.0625 -8.796875 4.1875 -8.796875 L 2.984375 -8.796875 L 2.984375 -4.765625 L 4.234375 -4.765625 C 5.066406 -4.765625 5.660156 -4.921875 6.015625 -5.234375 C 6.367188 -5.546875 6.546875 -6.070312 6.546875 -6.8125 Z M 6.546875 -6.8125 "/></g></g></g><g fill="#1a2b3c" fill-opacity="1"><g transform="translate(340.215413, 99.70426)"><g><path d="M 0.421875 -0.375 L 1.625 -0.5625 L 1.625 -8.875 L 0.421875 -9.0625 L 0.421875 -9.4375 L 7.484375 -9.4375 L 7.484375 -7.171875 L 7.03125 -7.171875 L 6.796875 -8.703125 C 6.273438 -8.765625 5.515625 -8.796875 4.515625 -8.796875 L 2.984375 -8.796875 L 2.984375 -5.109375 L 5.53125 -5.109375 L 5.75 -6.234375 L 6.203125 -6.234375 L 6.203125 -3.34375 L 5.75 -3.34375 L 5.53125 -4.484375 L 2.984375 -4.484375 L 2.984375 -0.640625 L 4.84375 -0.640625 C 6.050781 -0.640625 6.84375 -0.675781 7.21875 -0.75 L 7.625 -2.484375 L 8.078125 -2.484375 L 7.953125 0 L 0.421875 0 Z M 0.421875 -0.375 "/></g></g></g><g fill="#1a2b3c" fill-opacity="1"><g transform="translate(350.73529, 99.70426)"><g><path d="M 3.25 -0.375 L 3.25 0 L 0.140625 0 L 0.140625 -0.375 L 1.203125 -0.5625 L 4.421875 -9.515625 L 5.765625 -9.515625 L 9.109375 -0.5625 L 10.296875 -0.375 L 10.296875 0 L 6.3125 0 L 6.3125 -0.375 L 7.578125 -0.5625 L 6.640625 -3.28125 L 2.921875 -3.28125 L 1.984375 -0.5625 Z M 4.75 -8.5 L 3.140625 -3.921875 L 6.421875 -3.921875 Z M 4.75 -8.5 "/></g></g></g><g fill="#1a2b3c" fill-opacity="1"><g transform="translate(362.85743, 99.70426)"><g><path d="M 4.4375 -9.0625 L 2.984375 -8.875 L 2.984375 -0.609375 L 4.84375 -0.609375 C 5.84375 -0.609375 6.578125 -0.65625 7.046875 -0.75 L 7.484375 -2.703125 L 7.9375 -2.703125 L 7.8125 0 L 0.421875 0 L 0.421875 -0.375 L 1.625 -0.5625 L 1.625 -8.875 L 0.421875 -9.0625 L 0.421875 -9.4375 L 4.4375 -9.4375 Z M 4.4375 -9.0625 "/></g></g></g><g fill="#1a2b3c" fill-opacity="1"><g transform="translate(372.842969, 99.70426)"><g/></g></g><g fill="#1a2b3c" fill-opacity="1"><g transform="translate(378.16956, 99.70426)"><g><path d="M 0.421875 -0.375 L 1.625 -0.5625 L 1.625 -8.875 L 0.421875 -9.0625 L 0.421875 -9.4375 L 7.484375 -9.4375 L 7.484375 -7.171875 L 7.03125 -7.171875 L 6.796875 -8.703125 C 6.273438 -8.765625 5.515625 -8.796875 4.515625 -8.796875 L 2.984375 -8.796875 L 2.984375 -5.109375 L 5.53125 -5.109375 L 5.75 -6.234375 L 6.203125 -6.234375 L 6.203125 -3.34375 L 5.75 -3.34375 L 5.53125 -4.484375 L 2.984375 -4.484375 L 2.984375 -0.640625 L 4.84375 -0.640625 C 6.050781 -0.640625 6.84375 -0.675781 7.21875 -0.75 L 7.625 -2.484375 L 8.078125 -2.484375 L 7.953125 0 L 0.421875 0 Z M 0.421875 -0.375 "/></g></g></g><g fill="#1a2b3c" fill-opacity="1"><g transform="translate(388.689437, 99.70426)"><g><path d="M 0.984375 -2.546875 L 1.4375 -2.546875 L 1.6875 -1.265625 C 1.851562 -1.046875 2.148438 -0.847656 2.578125 -0.671875 C 3.003906 -0.503906 3.421875 -0.421875 3.828125 -0.421875 C 4.484375 -0.421875 4.992188 -0.585938 5.359375 -0.921875 C 5.734375 -1.265625 5.921875 -1.734375 5.921875 -2.328125 C 5.921875 -2.660156 5.847656 -2.9375 5.703125 -3.15625 C 5.566406 -3.375 5.378906 -3.5625 5.140625 -3.71875 C 4.910156 -3.875 4.644531 -4.003906 4.34375 -4.109375 C 4.050781 -4.210938 3.75 -4.316406 3.4375 -4.421875 C 3.125 -4.535156 2.820312 -4.65625 2.53125 -4.78125 C 2.238281 -4.914062 1.972656 -5.082031 1.734375 -5.28125 C 1.503906 -5.476562 1.316406 -5.726562 1.171875 -6.03125 C 1.035156 -6.332031 0.96875 -6.695312 0.96875 -7.125 C 0.96875 -7.882812 1.25 -8.472656 1.8125 -8.890625 C 2.375 -9.316406 3.15625 -9.53125 4.15625 -9.53125 C 4.914062 -9.53125 5.738281 -9.429688 6.625 -9.234375 L 6.625 -7.28125 L 6.171875 -7.28125 L 5.921875 -8.421875 C 5.441406 -8.773438 4.851562 -8.953125 4.15625 -8.953125 C 3.519531 -8.953125 3.023438 -8.820312 2.671875 -8.5625 C 2.316406 -8.3125 2.140625 -7.957031 2.140625 -7.5 C 2.140625 -7.195312 2.210938 -6.941406 2.359375 -6.734375 C 2.503906 -6.535156 2.691406 -6.363281 2.921875 -6.21875 C 3.148438 -6.082031 3.414062 -5.960938 3.71875 -5.859375 C 4.019531 -5.753906 4.320312 -5.644531 4.625 -5.53125 C 4.9375 -5.425781 5.242188 -5.300781 5.546875 -5.15625 C 5.847656 -5.019531 6.113281 -4.84375 6.34375 -4.625 C 6.570312 -4.414062 6.757812 -4.15625 6.90625 -3.84375 C 7.050781 -3.539062 7.125 -3.164062 7.125 -2.71875 C 7.125 -1.8125 6.84375 -1.109375 6.28125 -0.609375 C 5.71875 -0.109375 4.914062 0.140625 3.875 0.140625 C 3.363281 0.140625 2.851562 0.09375 2.34375 0 C 1.832031 -0.0820312 1.378906 -0.203125 0.984375 -0.359375 Z M 0.984375 -2.546875 "/></g></g></g><g fill="#1a2b3c" fill-opacity="1"><g transform="translate(398.422238, 99.70426)"><g><path d="M 2.21875 0 L 2.21875 -0.375 L 3.71875 -0.5625 L 3.71875 -8.828125 L 3.359375 -8.828125 C 2.171875 -8.828125 1.359375 -8.78125 0.921875 -8.6875 L 0.734375 -7.21875 L 0.265625 -7.21875 L 0.265625 -9.4375 L 8.5625 -9.4375 L 8.5625 -7.21875 L 8.078125 -7.21875 L 7.890625 -8.6875 C 7.753906 -8.71875 7.445312 -8.742188 6.96875 -8.765625 C 6.5 -8.796875 5.984375 -8.8125 5.421875 -8.8125 L 5.078125 -8.8125 L 5.078125 -0.5625 L 6.5625 -0.375 L 6.5625 0 Z M 2.21875 0 "/></g></g></g><g fill="#1a2b3c" fill-opacity="1"><g transform="translate(407.789064, 99.70426)"><g><path d="M 3.25 -0.375 L 3.25 0 L 0.140625 0 L 0.140625 -0.375 L 1.203125 -0.5625 L 4.421875 -9.515625 L 5.765625 -9.515625 L 9.109375 -0.5625 L 10.296875 -0.375 L 10.296875 0 L 6.3125 0 L 6.3125 -0.375 L 7.578125 -0.5625 L 6.640625 -3.28125 L 2.921875 -3.28125 L 1.984375 -0.5625 Z M 4.75 -8.5 L 3.140625 -3.921875 L 6.421875 -3.921875 Z M 4.75 -8.5 "/></g></g></g><g fill="#1a2b3c" fill-opacity="1"><g transform="translate(418.315251, 99.70426)"><g><path d="M 2.21875 0 L 2.21875 -0.375 L 3.71875 -0.5625 L 3.71875 -8.828125 L 3.359375 -8.828125 C 2.171875 -8.828125 1.359375 -8.78125 0.921875 -8.6875 L 0.734375 -7.21875 L 0.265625 -7.21875 L 0.265625 -9.4375 L 8.5625 -9.4375 L 8.5625 -7.21875 L 8.078125 -7.21875 L 7.890625 -8.6875 C 7.753906 -8.71875 7.445312 -8.742188 6.96875 -8.765625 C 6.5 -8.796875 5.984375 -8.8125 5.421875 -8.8125 L 5.078125 -8.8125 L 5.078125 -0.5625 L 6.5625 -0.375 L 6.5625 0 Z M 2.21875 0 "/></g></g></g><g fill="#1a2b3c" fill-opacity="1"><g transform="translate(428.835128, 99.70426)"><g><path d="M 0.421875 -0.375 L 1.625 -0.5625 L 1.625 -8.875 L 0.421875 -9.0625 L 0.421875 -9.4375 L 7.484375 -9.4375 L 7.484375 -7.171875 L 7.03125 -7.171875 L 6.796875 -8.703125 C 6.273438 -8.765625 5.515625 -8.796875 4.515625 -8.796875 L 2.984375 -8.796875 L 2.984375 -5.109375 L 5.53125 -5.109375 L 5.75 -6.234375 L 6.203125 -6.234375 L 6.203125 -3.34375 L 5.75 -3.34375 L 5.53125 -4.484375 L 2.984375 -4.484375 L 2.984375 -0.640625 L 4.84375 -0.640625 C 6.050781 -0.640625 6.84375 -0.675781 7.21875 -0.75 L 7.625 -2.484375 L 8.078125 -2.484375 L 7.953125 0 L 0.421875 0 Z M 0.421875 -0.375 "/></g></g></g></svg>