<svg xmlns="http://www.w3.org/2000/svg" xmlns:xlink="http://www.w3.org/1999/xlink" width="600" zoomAndPan="magnify" viewBox="0 0 450 101.249998" height="135" preserveAspectRatio="xMidYMid meet" version="1.0"><defs><g/><clipPath id="f99f3fabdd"><path d="M 2 2 L 89 2 L 89 99.15625 L 2 99.15625 Z M 2 2 " clip-rule="nonzero"/></clipPath></defs><g clip-path="url(#f99f3fabdd)"><path fill="#1a2b3c" d="M 69.882812 49.550781 C 69.832031 59.460938 70.042969 69.398438 69.746094 79.292969 L 70.03125 79.363281 C 70.046875 79.242188 70.085938 79.101562 70.167969 79.011719 C 79.160156 69.59375 83.382812 60.847656 82.121094 47.421875 C 81.21875 37.832031 77.367188 30.304688 71.03125 23.230469 C 68.925781 20.878906 66.304688 19.109375 63.773438 17.257812 L 63.773438 10.496094 C 75.835938 15.179688 83.777344 27.820312 86.890625 39.949219 C 91.179688 56.660156 86.914062 68.804688 75.792969 81.214844 C 67.625 90.332031 57.152344 96.265625 45.207031 99.007812 L 32.890625 93.675781 L 32.902344 17.183594 C 40.511719 19.746094 46.3125 25.757812 51.253906 31.839844 L 51.253906 9.925781 L 45.566406 7.570312 C 45.449219 7.535156 45.335938 7.5 45.21875 7.464844 C 45.167969 7.476562 45.074219 7.503906 44.960938 7.535156 C 44.960938 7.535156 43.410156 8.09375 41.8125 8.808594 C 27.78125 15.085938 14.925781 24.722656 10.105469 39.980469 C 5.71875 53.855469 10.335938 69.1875 20.722656 79.03125 C 20.777344 78.105469 20.652344 76.1875 20.671875 74.460938 C 20.679688 73.84375 20.675781 73.382812 20.675781 73.179688 C 20.671875 71.710938 20.605469 53.75 20.53125 33.902344 L 26.785156 27.710938 L 26.644531 89.320312 C 14.042969 83.210938 4.792969 71.453125 3.050781 57.359375 C 0.507812 36.816406 13 18.386719 30.339844 8.714844 C 35.109375 6.054688 40.101562 3.625 45.328125 2.003906 C 49.492188 3.144531 53.789062 4.402344 57.492188 6.605469 L 57.652344 58.363281 L 57.371094 58.519531 L 51.765625 52.433594 C 51.125 43.71875 47.445312 34.128906 40.222656 28.714844 C 39.867188 28.445312 39.113281 27.804688 38.667969 27.757812 C 38.664062 33.742188 39.011719 39.964844 39.007812 45.953125 C 39.070312 46.019531 39.128906 46.085938 39.1875 46.152344 C 39.273438 46.242188 39.355469 46.335938 39.441406 46.425781 L 63.34375 70.324219 L 63.769531 70.535156 C 63.738281 52.652344 63.707031 44.953125 63.683594 41.414062 C 63.675781 40.535156 63.65625 37.824219 63.683594 34.179688 C 63.703125 31.328125 63.742188 29.015625 63.773438 27.566406 L 69.898438 33.605469 M 57.183594 79.433594 L 57.511719 88.96875 L 57.800781 89.121094 C 58.441406 88.703125 59.125 88.355469 59.777344 87.960938 C 61.457031 86.9375 64.882812 84.738281 66.242188 83.46875 C 66.34375 83.375 66.523438 83.347656 66.472656 83.144531 L 39.023438 54.460938 C 39.429688 66.570312 38.871094 78.695312 39.011719 90.824219 C 41.097656 91.65625 43.183594 92.484375 45.269531 93.316406 C 47.289062 92.746094 49.3125 92.175781 51.332031 91.605469 L 51.066406 73.386719 L 57.179688 79.433594 Z M 57.183594 79.433594 " fill-opacity="1" fill-rule="nonzero"/></g><path fill="#1a2b3c" d="M 120.554688 8.339844 L 131.042969 8.339844 L 131.042969 73 L 120.554688 73 Z M 120.554688 8.339844 " fill-opacity="1" fill-rule="nonzero"/><path fill="#1a2b3c" d="M 157.617188 72.832031 L 155.984375 72.832031 L 155.984375 8.167969 L 165.152344 8.167969 L 206.722656 55.835938 L 207.109375 8.167969 L 208.585938 8.167969 L 208.585938 72.746094 L 157.691406 15.988281 L 157.613281 72.832031 Z M 157.617188 72.832031 " fill-opacity="1" fill-rule="nonzero"/><path fill="#1a2b3c" d="M 235.390625 72.832031 L 233.757812 72.832031 L 233.757812 8.167969 L 242.925781 8.167969 L 284.496094 55.835938 L 284.882812 8.167969 L 286.359375 8.167969 L 286.359375 72.746094 L 235.464844 15.988281 L 235.386719 72.832031 Z M 235.390625 72.832031 " fill-opacity="1" fill-rule="nonzero"/><path fill="#1a2b3c" d="M 337.796875 74.527344 C 332.875 74.527344 328.265625 73.652344 323.964844 71.894531 C 319.664062 70.136719 315.898438 67.746094 312.660156 64.714844 C 309.421875 61.683594 306.882812 58.128906 305.046875 54.050781 C 303.207031 49.972656 302.289062 45.636719 302.289062 41.046875 C 302.289062 36.460938 303.207031 32.070312 305.046875 28.046875 C 306.882812 24.027344 309.421875 20.472656 312.660156 17.382812 C 315.898438 14.296875 319.664062 11.890625 323.964844 10.160156 C 328.265625 8.433594 332.875 7.570312 337.796875 7.570312 C 343.910156 7.628906 349.0625 8.71875 353.257812 10.839844 C 357.453125 12.964844 360.328125 15.386719 361.882812 18.105469 L 360.484375 18.871094 C 358.722656 16.207031 356.238281 14.054688 353.027344 12.414062 C 349.191406 10.429688 345.179688 9.4375 340.984375 9.4375 C 337.097656 9.4375 333.40625 10.316406 329.910156 12.074219 C 326.414062 13.828125 323.527344 16.378906 321.25 19.722656 C 318.96875 23.066406 317.273438 26.675781 316.160156 30.554688 C 315.042969 34.433594 314.488281 38.074219 314.488281 41.472656 C 314.488281 49.914062 317.078125 57.222656 322.257812 63.394531 C 327.957031 69.511719 334.378906 72.570312 341.527344 72.570312 C 344.84375 72.570312 348.183594 71.851562 351.550781 70.40625 C 354.917969 68.960938 357.894531 67.105469 360.488281 64.839844 L 361.652344 65.859375 C 355.4375 71.636719 347.484375 74.527344 337.796875 74.527344 Z M 337.796875 74.527344 " fill-opacity="1" fill-rule="nonzero"/><path fill="#1a2b3c" d="M 429.328125 73 L 419.070312 73 C 413.621094 61.660156 407.035156 47.832031 401.589844 36.492188 C 400.398438 34.695312 398.203125 29.039062 393.816406 20.828125 L 369.421875 71.859375 C 369.246094 72.210938 369.074219 72.558594 368.898438 72.910156 C 368.683594 72.910156 368.457031 72.914062 368.242188 72.914062 C 368.011719 72.914062 367.78125 72.914062 367.554688 72.914062 L 398.089844 8.339844 Z M 429.328125 73 " fill-opacity="1" fill-rule="nonzero"/><path stroke-linecap="butt" transform="matrix(0.186983, 0, 0, 0.186983, -25.976987, -191.821786)" fill="none" stroke-linejoin="miter" d="M 2139.861482 1350.565307 C 2142.995124 1345.697718 2147.235985 1339.325982 2152.542284 1332.097717 C 2157.723238 1325.03658 2169.380384 1309.786194 2186.949666 1291.611077 C 2202.283618 1275.796636 2213.64829 1264.223056 2231.802519 1252.001857 C 2242.603136 1244.752701 2259.587472 1233.471594 2284.698385 1226.243329 C 2304.816362 1220.435648 2322.322972 1219.453774 2334.314373 1219.641792 " stroke="#1a2b3c" stroke-width="7.59" stroke-opacity="1" stroke-miterlimit="10"/><path stroke-linecap="butt" transform="matrix(0.186983, 0, 0, 0.186983, -25.976987, -191.821786)" fill-opacity="1" fill="#1a2b3c" fill-rule="nonzero" stroke-linejoin="miter" d="M 2139.736137 1357.396644 L 2142.180377 1352.341037 L 2142.180377 1352.153019 L 2142.974233 1352.549946 L 2142.869778 1352.696183 Z M 2139.736137 1357.396644 " stroke="#1a2b3c" stroke-width="0.22" stroke-opacity="1" stroke-miterlimit="10"/><g fill="#1a2b3c" fill-opacity="1"><g transform="translate(118.572065, 95.457042)"><g><path d="M 0.4375 0 L 0.4375 -0.390625 L 1.703125 -0.59375 L 1.703125 -9.265625 L 0.4375 -9.453125 L 0.4375 -9.84375 L 4.375 -9.84375 L 4.375 -9.453125 L 3.109375 -9.265625 L 3.109375 -5.390625 L 7.75 -5.390625 L 7.75 -9.265625 L 6.484375 -9.453125 L 6.484375 -9.84375 L 10.421875 -9.84375 L 10.421875 -9.453125 L 9.15625 -9.265625 L 9.15625 -0.59375 L 10.421875 -0.390625 L 10.421875 0 L 6.484375 0 L 6.484375 -0.390625 L 7.75 -0.59375 L 7.75 -4.734375 L 3.109375 -4.734375 L 3.109375 -0.59375 L 4.375 -0.390625 L 4.375 0 Z M 0.4375 0 "/></g></g></g><g fill="#1a2b3c" fill-opacity="1"><g transform="translate(131.225287, 95.457042)"><g><path d="M 2.15625 -4.9375 C 2.15625 -3.351562 2.414062 -2.207031 2.9375 -1.5 C 3.46875 -0.789062 4.296875 -0.4375 5.421875 -0.4375 C 6.546875 -0.4375 7.375 -0.789062 7.90625 -1.5 C 8.4375 -2.207031 8.703125 -3.351562 8.703125 -4.9375 C 8.703125 -6.5 8.4375 -7.625 7.90625 -8.3125 C 7.375 -9.007812 6.546875 -9.359375 5.421875 -9.359375 C 4.296875 -9.359375 3.46875 -9.007812 2.9375 -8.3125 C 2.414062 -7.625 2.15625 -6.5 2.15625 -4.9375 Z M 0.609375 -4.9375 C 0.609375 -8.28125 2.210938 -9.953125 5.421875 -9.953125 C 7.003906 -9.953125 8.203125 -9.523438 9.015625 -8.671875 C 9.828125 -7.828125 10.234375 -6.582031 10.234375 -4.9375 C 10.234375 -3.257812 9.820312 -1.992188 9 -1.140625 C 8.175781 -0.285156 6.984375 0.140625 5.421875 0.140625 C 3.859375 0.140625 2.664062 -0.285156 1.84375 -1.140625 C 1.019531 -1.992188 0.609375 -3.257812 0.609375 -4.9375 Z M 0.609375 -4.9375 "/></g></g></g><g fill="#1a2b3c" fill-opacity="1"><g transform="translate(143.878509, 95.457042)"><g><path d="M 1.015625 -2.65625 L 1.5 -2.65625 L 1.75 -1.328125 C 1.9375 -1.085938 2.25 -0.878906 2.6875 -0.703125 C 3.132812 -0.535156 3.570312 -0.453125 4 -0.453125 C 4.6875 -0.453125 5.222656 -0.625 5.609375 -0.96875 C 5.992188 -1.320312 6.1875 -1.804688 6.1875 -2.421875 C 6.1875 -2.773438 6.109375 -3.066406 5.953125 -3.296875 C 5.804688 -3.523438 5.609375 -3.71875 5.359375 -3.875 C 5.117188 -4.039062 4.84375 -4.175781 4.53125 -4.28125 C 4.226562 -4.394531 3.914062 -4.503906 3.59375 -4.609375 C 3.269531 -4.722656 2.953125 -4.847656 2.640625 -4.984375 C 2.335938 -5.128906 2.0625 -5.304688 1.8125 -5.515625 C 1.570312 -5.722656 1.375 -5.984375 1.21875 -6.296875 C 1.070312 -6.609375 1 -6.988281 1 -7.4375 C 1 -8.21875 1.289062 -8.832031 1.875 -9.28125 C 2.46875 -9.726562 3.285156 -9.953125 4.328125 -9.953125 C 5.117188 -9.953125 5.976562 -9.847656 6.90625 -9.640625 L 6.90625 -7.59375 L 6.4375 -7.59375 L 6.1875 -8.796875 C 5.6875 -9.148438 5.066406 -9.328125 4.328125 -9.328125 C 3.671875 -9.328125 3.15625 -9.191406 2.78125 -8.921875 C 2.414062 -8.660156 2.234375 -8.296875 2.234375 -7.828125 C 2.234375 -7.515625 2.304688 -7.25 2.453125 -7.03125 C 2.609375 -6.820312 2.804688 -6.644531 3.046875 -6.5 C 3.285156 -6.351562 3.5625 -6.222656 3.875 -6.109375 C 4.1875 -6.003906 4.503906 -5.894531 4.828125 -5.78125 C 5.160156 -5.664062 5.476562 -5.535156 5.78125 -5.390625 C 6.09375 -5.242188 6.367188 -5.054688 6.609375 -4.828125 C 6.859375 -4.609375 7.054688 -4.335938 7.203125 -4.015625 C 7.347656 -3.703125 7.421875 -3.3125 7.421875 -2.84375 C 7.421875 -1.894531 7.128906 -1.160156 6.546875 -0.640625 C 5.972656 -0.117188 5.132812 0.140625 4.03125 0.140625 C 3.507812 0.140625 2.976562 0.09375 2.4375 0 C 1.90625 -0.0820312 1.429688 -0.207031 1.015625 -0.375 Z M 1.015625 -2.65625 "/></g></g></g><g fill="#1a2b3c" fill-opacity="1"><g transform="translate(154.037608, 95.457042)"><g><path d="M 6.296875 -6.921875 C 6.296875 -7.734375 6.109375 -8.3125 5.734375 -8.65625 C 5.359375 -9.007812 4.722656 -9.1875 3.828125 -9.1875 L 3.109375 -9.1875 L 3.109375 -4.515625 L 3.875 -4.515625 C 4.695312 -4.515625 5.304688 -4.703125 5.703125 -5.078125 C 6.097656 -5.460938 6.296875 -6.078125 6.296875 -6.921875 Z M 3.109375 -3.859375 L 3.109375 -0.59375 L 4.671875 -0.390625 L 4.671875 0 L 0.53125 0 L 0.53125 -0.390625 L 1.703125 -0.59375 L 1.703125 -9.265625 L 0.4375 -9.453125 L 0.4375 -9.84375 L 4.140625 -9.84375 C 6.554688 -9.84375 7.765625 -8.875 7.765625 -6.9375 C 7.765625 -5.9375 7.457031 -5.171875 6.84375 -4.640625 C 6.238281 -4.117188 5.363281 -3.859375 4.21875 -3.859375 Z M 3.109375 -3.859375 "/></g></g></g><g fill="#1a2b3c" fill-opacity="1"><g transform="translate(164.196706, 95.457042)"><g><path d="M 3.21875 -0.59375 L 4.484375 -0.390625 L 4.484375 0 L 0.546875 0 L 0.546875 -0.390625 L 1.8125 -0.59375 L 1.8125 -9.265625 L 0.546875 -9.453125 L 0.546875 -9.84375 L 4.484375 -9.84375 L 4.484375 -9.453125 L 3.21875 -9.265625 Z M 3.21875 -0.59375 "/></g></g></g><g fill="#1a2b3c" fill-opacity="1"><g transform="translate(171.003402, 95.457042)"><g><path d="M 2.3125 0 L 2.3125 -0.390625 L 3.875 -0.59375 L 3.875 -9.21875 L 3.5 -9.21875 C 2.257812 -9.21875 1.414062 -9.164062 0.96875 -9.0625 L 0.765625 -7.53125 L 0.265625 -7.53125 L 0.265625 -9.84375 L 8.9375 -9.84375 L 8.9375 -7.53125 L 8.4375 -7.53125 L 8.234375 -9.0625 C 8.085938 -9.09375 7.765625 -9.125 7.265625 -9.15625 C 6.773438 -9.1875 6.238281 -9.203125 5.65625 -9.203125 L 5.296875 -9.203125 L 5.296875 -0.59375 L 6.859375 -0.390625 L 6.859375 0 Z M 2.3125 0 "/></g></g></g><g fill="#1a2b3c" fill-opacity="1"><g transform="translate(180.780557, 95.457042)"><g><path d="M 3.390625 -0.390625 L 3.390625 0 L 0.140625 0 L 0.140625 -0.390625 L 1.265625 -0.59375 L 4.609375 -9.921875 L 6.015625 -9.921875 L 9.5 -0.59375 L 10.75 -0.390625 L 10.75 0 L 6.578125 0 L 6.578125 -0.390625 L 7.90625 -0.59375 L 6.921875 -3.421875 L 3.046875 -3.421875 L 2.0625 -0.59375 Z M 4.96875 -8.859375 L 3.265625 -4.09375 L 6.703125 -4.09375 Z M 4.96875 -8.859375 "/></g></g></g><g fill="#1a2b3c" fill-opacity="1"><g transform="translate(193.433779, 95.457042)"><g><path d="M 4.625 -9.453125 L 3.109375 -9.265625 L 3.109375 -0.625 L 5.046875 -0.625 C 6.085938 -0.625 6.851562 -0.675781 7.34375 -0.78125 L 7.796875 -2.828125 L 8.28125 -2.828125 L 8.140625 0 L 0.4375 0 L 0.4375 -0.390625 L 1.703125 -0.59375 L 1.703125 -9.265625 L 0.4375 -9.453125 L 0.4375 -9.84375 L 4.625 -9.84375 Z M 4.625 -9.453125 "/></g></g></g><g fill="#1a2b3c" fill-opacity="1"><g transform="translate(204.414472, 95.457042)"><g><path d="M 3.21875 -0.59375 L 4.484375 -0.390625 L 4.484375 0 L 0.546875 0 L 0.546875 -0.390625 L 1.8125 -0.59375 L 1.8125 -9.265625 L 0.546875 -9.453125 L 0.546875 -9.84375 L 4.484375 -9.84375 L 4.484375 -9.453125 L 3.21875 -9.265625 Z M 3.21875 -0.59375 "/></g></g></g><g fill="#1a2b3c" fill-opacity="1"><g transform="translate(211.221168, 95.457042)"><g><path d="M 2.3125 0 L 2.3125 -0.390625 L 3.875 -0.59375 L 3.875 -9.21875 L 3.5 -9.21875 C 2.257812 -9.21875 1.414062 -9.164062 0.96875 -9.0625 L 0.765625 -7.53125 L 0.265625 -7.53125 L 0.265625 -9.84375 L 8.9375 -9.84375 L 8.9375 -7.53125 L 8.4375 -7.53125 L 8.234375 -9.0625 C 8.085938 -9.09375 7.765625 -9.125 7.265625 -9.15625 C 6.773438 -9.1875 6.238281 -9.203125 5.65625 -9.203125 L 5.296875 -9.203125 L 5.296875 -0.59375 L 6.859375 -0.390625 L 6.859375 0 Z M 2.3125 0 "/></g></g></g><g fill="#1a2b3c" fill-opacity="1"><g transform="translate(222.20186, 95.457042)"><g><path d="M 6.15625 -3.875 L 6.15625 -0.59375 L 7.71875 -0.390625 L 7.71875 0 L 3.171875 0 L 3.171875 -0.390625 L 4.734375 -0.59375 L 4.734375 -3.828125 L 1.28125 -9.265625 L 0.171875 -9.453125 L 0.171875 -9.84375 L 4.328125 -9.84375 L 4.328125 -9.453125 L 3.015625 -9.265625 L 5.828125 -4.71875 L 8.515625 -9.265625 L 7.265625 -9.453125 L 7.265625 -9.84375 L 10.46875 -9.84375 L 10.46875 -9.453125 L 9.390625 -9.265625 Z M 6.15625 -3.875 "/></g></g></g><g fill="#1a2b3c" fill-opacity="1"><g transform="translate(234.297345, 95.457042)"><g/></g></g><g fill="#1a2b3c" fill-opacity="1"><g transform="translate(239.856979, 95.457042)"><g><path d="M 2.765625 -0.671875 C 2.765625 -0.429688 2.679688 -0.222656 2.515625 -0.046875 C 2.347656 0.128906 2.132812 0.21875 1.875 0.21875 C 1.625 0.21875 1.410156 0.128906 1.234375 -0.046875 C 1.066406 -0.222656 0.984375 -0.429688 0.984375 -0.671875 C 0.984375 -0.921875 1.066406 -1.128906 1.234375 -1.296875 C 1.410156 -1.472656 1.625 -1.5625 1.875 -1.5625 C 2.125 -1.5625 2.332031 -1.472656 2.5 -1.296875 C 2.675781 -1.128906 2.765625 -0.921875 2.765625 -0.671875 Z M 2.765625 -0.671875 "/></g></g></g><g fill="#1a2b3c" fill-opacity="1"><g transform="translate(245.416613, 95.457042)"><g/></g></g><g fill="#1a2b3c" fill-opacity="1"><g transform="translate(250.976248, 95.457042)"><g><path d="M 1.015625 -2.65625 L 1.5 -2.65625 L 1.75 -1.328125 C 1.9375 -1.085938 2.25 -0.878906 2.6875 -0.703125 C 3.132812 -0.535156 3.570312 -0.453125 4 -0.453125 C 4.6875 -0.453125 5.222656 -0.625 5.609375 -0.96875 C 5.992188 -1.320312 6.1875 -1.804688 6.1875 -2.421875 C 6.1875 -2.773438 6.109375 -3.066406 5.953125 -3.296875 C 5.804688 -3.523438 5.609375 -3.71875 5.359375 -3.875 C 5.117188 -4.039062 4.84375 -4.175781 4.53125 -4.28125 C 4.226562 -4.394531 3.914062 -4.503906 3.59375 -4.609375 C 3.269531 -4.722656 2.953125 -4.847656 2.640625 -4.984375 C 2.335938 -5.128906 2.0625 -5.304688 1.8125 -5.515625 C 1.570312 -5.722656 1.375 -5.984375 1.21875 -6.296875 C 1.070312 -6.609375 1 -6.988281 1 -7.4375 C 1 -8.21875 1.289062 -8.832031 1.875 -9.28125 C 2.46875 -9.726562 3.285156 -9.953125 4.328125 -9.953125 C 5.117188 -9.953125 5.976562 -9.847656 6.90625 -9.640625 L 6.90625 -7.59375 L 6.4375 -7.59375 L 6.1875 -8.796875 C 5.6875 -9.148438 5.066406 -9.328125 4.328125 -9.328125 C 3.671875 -9.328125 3.15625 -9.191406 2.78125 -8.921875 C 2.414062 -8.660156 2.234375 -8.296875 2.234375 -7.828125 C 2.234375 -7.515625 2.304688 -7.25 2.453125 -7.03125 C 2.609375 -6.820312 2.804688 -6.644531 3.046875 -6.5 C 3.285156 -6.351562 3.5625 -6.222656 3.875 -6.109375 C 4.1875 -6.003906 4.503906 -5.894531 4.828125 -5.78125 C 5.160156 -5.664062 5.476562 -5.535156 5.78125 -5.390625 C 6.09375 -5.242188 6.367188 -5.054688 6.609375 -4.828125 C 6.859375 -4.609375 7.054688 -4.335938 7.203125 -4.015625 C 7.347656 -3.703125 7.421875 -3.3125 7.421875 -2.84375 C 7.421875 -1.894531 7.128906 -1.160156 6.546875 -0.640625 C 5.972656 -0.117188 5.132812 0.140625 4.03125 0.140625 C 3.507812 0.140625 2.976562 0.09375 2.4375 0 C 1.90625 -0.0820312 1.429688 -0.207031 1.015625 -0.375 Z M 1.015625 -2.65625 "/></g></g></g><g fill="#1a2b3c" fill-opacity="1"><g transform="translate(261.135346, 95.457042)"><g><path d="M 2.3125 0 L 2.3125 -0.390625 L 3.875 -0.59375 L 3.875 -9.21875 L 3.5 -9.21875 C 2.257812 -9.21875 1.414062 -9.164062 0.96875 -9.0625 L 0.765625 -7.53125 L 0.265625 -7.53125 L 0.265625 -9.84375 L 8.9375 -9.84375 L 8.9375 -7.53125 L 8.4375 -7.53125 L 8.234375 -9.0625 C 8.085938 -9.09375 7.765625 -9.125 7.265625 -9.15625 C 6.773438 -9.1875 6.238281 -9.203125 5.65625 -9.203125 L 5.296875 -9.203125 L 5.296875 -0.59375 L 6.859375 -0.390625 L 6.859375 0 Z M 2.3125 0 "/></g></g></g><g fill="#1a2b3c" fill-opacity="1"><g transform="translate(272.116038, 95.457042)"><g><path d="M 8.5 -9.265625 L 7.1875 -9.453125 L 7.1875 -9.84375 L 10.546875 -9.84375 L 10.546875 -9.453125 L 9.28125 -9.265625 L 9.28125 -3.390625 C 9.28125 -2.203125 8.953125 -1.316406 8.296875 -0.734375 C 7.648438 -0.148438 6.710938 0.140625 5.484375 0.140625 C 4.171875 0.140625 3.191406 -0.148438 2.546875 -0.734375 C 1.898438 -1.328125 1.578125 -2.164062 1.578125 -3.25 L 1.578125 -9.265625 L 0.3125 -9.453125 L 0.3125 -9.84375 L 4.25 -9.84375 L 4.25 -9.453125 L 2.984375 -9.265625 L 2.984375 -3.359375 C 2.984375 -1.566406 3.851562 -0.671875 5.59375 -0.671875 C 6.53125 -0.671875 7.25 -0.894531 7.75 -1.34375 C 8.25 -1.789062 8.5 -2.453125 8.5 -3.328125 Z M 8.5 -9.265625 "/></g></g></g><g fill="#1a2b3c" fill-opacity="1"><g transform="translate(284.76926, 95.457042)"><g><path d="M 8.71875 -4.984375 C 8.71875 -6.359375 8.347656 -7.398438 7.609375 -8.109375 C 6.867188 -8.828125 5.8125 -9.1875 4.4375 -9.1875 L 3.109375 -9.1875 L 3.109375 -0.6875 C 3.703125 -0.644531 4.398438 -0.625 5.203125 -0.625 C 6.410156 -0.625 7.296875 -0.976562 7.859375 -1.6875 C 8.429688 -2.40625 8.71875 -3.503906 8.71875 -4.984375 Z M 4.90625 -9.84375 C 6.71875 -9.84375 8.0625 -9.4375 8.9375 -8.625 C 9.8125 -7.8125 10.25 -6.59375 10.25 -4.96875 C 10.25 -3.332031 9.828125 -2.085938 8.984375 -1.234375 C 8.140625 -0.390625 6.878906 0.03125 5.203125 0.03125 L 1.703125 0 L 0.4375 0 L 0.4375 -0.390625 L 1.703125 -0.59375 L 1.703125 -9.265625 L 0.4375 -9.453125 L 0.4375 -9.84375 Z M 4.90625 -9.84375 "/></g></g></g><g fill="#1a2b3c" fill-opacity="1"><g transform="translate(297.422482, 95.457042)"><g><path d="M 3.21875 -0.59375 L 4.484375 -0.390625 L 4.484375 0 L 0.546875 0 L 0.546875 -0.390625 L 1.8125 -0.59375 L 1.8125 -9.265625 L 0.546875 -9.453125 L 0.546875 -9.84375 L 4.484375 -9.84375 L 4.484375 -9.453125 L 3.21875 -9.265625 Z M 3.21875 -0.59375 "/></g></g></g><g fill="#1a2b3c" fill-opacity="1"><g transform="translate(304.229178, 95.457042)"><g><path d="M 2.15625 -4.9375 C 2.15625 -3.351562 2.414062 -2.207031 2.9375 -1.5 C 3.46875 -0.789062 4.296875 -0.4375 5.421875 -0.4375 C 6.546875 -0.4375 7.375 -0.789062 7.90625 -1.5 C 8.4375 -2.207031 8.703125 -3.351562 8.703125 -4.9375 C 8.703125 -6.5 8.4375 -7.625 7.90625 -8.3125 C 7.375 -9.007812 6.546875 -9.359375 5.421875 -9.359375 C 4.296875 -9.359375 3.46875 -9.007812 2.9375 -8.3125 C 2.414062 -7.625 2.15625 -6.5 2.15625 -4.9375 Z M 0.609375 -4.9375 C 0.609375 -8.28125 2.210938 -9.953125 5.421875 -9.953125 C 7.003906 -9.953125 8.203125 -9.523438 9.015625 -8.671875 C 9.828125 -7.828125 10.234375 -6.582031 10.234375 -4.9375 C 10.234375 -3.257812 9.820312 -1.992188 9 -1.140625 C 8.175781 -0.285156 6.984375 0.140625 5.421875 0.140625 C 3.859375 0.140625 2.664062 -0.285156 1.84375 -1.140625 C 1.019531 -1.992188 0.609375 -3.257812 0.609375 -4.9375 Z M 0.609375 -4.9375 "/></g></g></g><g fill="#1a2b3c" fill-opacity="1"><g transform="translate(316.8824, 95.457042)"><g/></g></g><g fill="#1a2b3c" fill-opacity="1"><g transform="translate(322.442023, 95.457042)"><g><path d="M 2.765625 -0.671875 C 2.765625 -0.429688 2.679688 -0.222656 2.515625 -0.046875 C 2.347656 0.128906 2.132812 0.21875 1.875 0.21875 C 1.625 0.21875 1.410156 0.128906 1.234375 -0.046875 C 1.066406 -0.222656 0.984375 -0.429688 0.984375 -0.671875 C 0.984375 -0.921875 1.066406 -1.128906 1.234375 -1.296875 C 1.410156 -1.472656 1.625 -1.5625 1.875 -1.5625 C 2.125 -1.5625 2.332031 -1.472656 2.5 -1.296875 C 2.675781 -1.128906 2.765625 -0.921875 2.765625 -0.671875 Z M 2.765625 -0.671875 "/></g></g></g><g fill="#1a2b3c" fill-opacity="1"><g transform="translate(333.561315, 95.457042)"><g><path d="M 3.109375 -4.3125 L 3.109375 -0.59375 L 4.609375 -0.390625 L 4.609375 0 L 0.53125 0 L 0.53125 -0.390625 L 1.703125 -0.59375 L 1.703125 -9.265625 L 0.4375 -9.453125 L 0.4375 -9.84375 L 4.6875 -9.84375 C 5.914062 -9.84375 6.820312 -9.632812 7.40625 -9.21875 C 8 -8.800781 8.296875 -8.132812 8.296875 -7.21875 C 8.296875 -6.5625 8.113281 -5.992188 7.75 -5.515625 C 7.394531 -5.035156 6.90625 -4.703125 6.28125 -4.515625 L 8.9375 -0.59375 L 10 -0.390625 L 10 0 L 7.640625 0 L 4.875 -4.3125 Z M 6.828125 -7.109375 C 6.828125 -7.859375 6.644531 -8.390625 6.28125 -8.703125 C 5.914062 -9.023438 5.273438 -9.1875 4.359375 -9.1875 L 3.109375 -9.1875 L 3.109375 -4.96875 L 4.40625 -4.96875 C 5.28125 -4.96875 5.898438 -5.128906 6.265625 -5.453125 C 6.640625 -5.785156 6.828125 -6.335938 6.828125 -7.109375 Z M 6.828125 -7.109375 "/></g></g></g><g fill="#1a2b3c" fill-opacity="1"><g transform="translate(345.385602, 95.457042)"><g><path d="M 0.4375 -0.390625 L 1.703125 -0.59375 L 1.703125 -9.265625 L 0.4375 -9.453125 L 0.4375 -9.84375 L 7.8125 -9.84375 L 7.8125 -7.484375 L 7.328125 -7.484375 L 7.09375 -9.078125 C 6.550781 -9.148438 5.757812 -9.1875 4.71875 -9.1875 L 3.109375 -9.1875 L 3.109375 -5.328125 L 5.765625 -5.328125 L 6 -6.515625 L 6.46875 -6.515625 L 6.46875 -3.484375 L 6 -3.484375 L 5.765625 -4.671875 L 3.109375 -4.671875 L 3.109375 -0.65625 L 5.046875 -0.65625 C 6.304688 -0.65625 7.132812 -0.695312 7.53125 -0.78125 L 7.953125 -2.59375 L 8.4375 -2.59375 L 8.296875 0 L 0.4375 0 Z M 0.4375 -0.390625 "/></g></g></g><g fill="#1a2b3c" fill-opacity="1"><g transform="translate(356.366294, 95.457042)"><g><path d="M 3.390625 -0.390625 L 3.390625 0 L 0.140625 0 L 0.140625 -0.390625 L 1.265625 -0.59375 L 4.609375 -9.921875 L 6.015625 -9.921875 L 9.5 -0.59375 L 10.75 -0.390625 L 10.75 0 L 6.578125 0 L 6.578125 -0.390625 L 7.90625 -0.59375 L 6.921875 -3.421875 L 3.046875 -3.421875 L 2.0625 -0.59375 Z M 4.96875 -8.859375 L 3.265625 -4.09375 L 6.703125 -4.09375 Z M 4.96875 -8.859375 "/></g></g></g><g fill="#1a2b3c" fill-opacity="1"><g transform="translate(369.019494, 95.457042)"><g><path d="M 4.625 -9.453125 L 3.109375 -9.265625 L 3.109375 -0.625 L 5.046875 -0.625 C 6.085938 -0.625 6.851562 -0.675781 7.34375 -0.78125 L 7.796875 -2.828125 L 8.28125 -2.828125 L 8.140625 0 L 0.4375 0 L 0.4375 -0.390625 L 1.703125 -0.59375 L 1.703125 -9.265625 L 0.4375 -9.453125 L 0.4375 -9.84375 L 4.625 -9.84375 Z M 4.625 -9.453125 "/></g></g></g><g fill="#1a2b3c" fill-opacity="1"><g transform="translate(379.442471, 95.457042)"><g/></g></g><g fill="#1a2b3c" fill-opacity="1"><g transform="translate(385.002094, 95.457042)"><g><path d="M 0.4375 -0.390625 L 1.703125 -0.59375 L 1.703125 -9.265625 L 0.4375 -9.453125 L 0.4375 -9.84375 L 7.8125 -9.84375 L 7.8125 -7.484375 L 7.328125 -7.484375 L 7.09375 -9.078125 C 6.550781 -9.148438 5.757812 -9.1875 4.71875 -9.1875 L 3.109375 -9.1875 L 3.109375 -5.328125 L 5.765625 -5.328125 L 6 -6.515625 L 6.46875 -6.515625 L 6.46875 -3.484375 L 6 -3.484375 L 5.765625 -4.671875 L 3.109375 -4.671875 L 3.109375 -0.65625 L 5.046875 -0.65625 C 6.304688 -0.65625 7.132812 -0.695312 7.53125 -0.78125 L 7.953125 -2.59375 L 8.4375 -2.59375 L 8.296875 0 L 0.4375 0 Z M 0.4375 -0.390625 "/></g></g></g><g fill="#1a2b3c" fill-opacity="1"><g transform="translate(395.982786, 95.457042)"><g><path d="M 1.015625 -2.65625 L 1.5 -2.65625 L 1.75 -1.328125 C 1.9375 -1.085938 2.25 -0.878906 2.6875 -0.703125 C 3.132812 -0.535156 3.570312 -0.453125 4 -0.453125 C 4.6875 -0.453125 5.222656 -0.625 5.609375 -0.96875 C 5.992188 -1.320312 6.1875 -1.804688 6.1875 -2.421875 C 6.1875 -2.773438 6.109375 -3.066406 5.953125 -3.296875 C 5.804688 -3.523438 5.609375 -3.71875 5.359375 -3.875 C 5.117188 -4.039062 4.84375 -4.175781 4.53125 -4.28125 C 4.226562 -4.394531 3.914062 -4.503906 3.59375 -4.609375 C 3.269531 -4.722656 2.953125 -4.847656 2.640625 -4.984375 C 2.335938 -5.128906 2.0625 -5.304688 1.8125 -5.515625 C 1.570312 -5.722656 1.375 -5.984375 1.21875 -6.296875 C 1.070312 -6.609375 1 -6.988281 1 -7.4375 C 1 -8.21875 1.289062 -8.832031 1.875 -9.28125 C 2.46875 -9.726562 3.285156 -9.953125 4.328125 -9.953125 C 5.117188 -9.953125 5.976562 -9.847656 6.90625 -9.640625 L 6.90625 -7.59375 L 6.4375 -7.59375 L 6.1875 -8.796875 C 5.6875 -9.148438 5.066406 -9.328125 4.328125 -9.328125 C 3.671875 -9.328125 3.15625 -9.191406 2.78125 -8.921875 C 2.414062 -8.660156 2.234375 -8.296875 2.234375 -7.828125 C 2.234375 -7.515625 2.304688 -7.25 2.453125 -7.03125 C 2.609375 -6.820312 2.804688 -6.644531 3.046875 -6.5 C 3.285156 -6.351562 3.5625 -6.222656 3.875 -6.109375 C 4.1875 -6.003906 4.503906 -5.894531 4.828125 -5.78125 C 5.160156 -5.664062 5.476562 -5.535156 5.78125 -5.390625 C 6.09375 -5.242188 6.367188 -5.054688 6.609375 -4.828125 C 6.859375 -4.609375 7.054688 -4.335938 7.203125 -4.015625 C 7.347656 -3.703125 7.421875 -3.3125 7.421875 -2.84375 C 7.421875 -1.894531 7.128906 -1.160156 6.546875 -0.640625 C 5.972656 -0.117188 5.132812 0.140625 4.03125 0.140625 C 3.507812 0.140625 2.976562 0.09375 2.4375 0 C 1.90625 -0.0820312 1.429688 -0.207031 1.015625 -0.375 Z M 1.015625 -2.65625 "/></g></g></g><g fill="#1a2b3c" fill-opacity="1"><g transform="translate(406.141884, 95.457042)"><g><path d="M 2.3125 0 L 2.3125 -0.390625 L 3.875 -0.59375 L 3.875 -9.21875 L 3.5 -9.21875 C 2.257812 -9.21875 1.414062 -9.164062 0.96875 -9.0625 L 0.765625 -7.53125 L 0.265625 -7.53125 L 0.265625 -9.84375 L 8.9375 -9.84375 L 8.9375 -7.53125 L 8.4375 -7.53125 L 8.234375 -9.0625 C 8.085938 -9.09375 7.765625 -9.125 7.265625 -9.15625 C 6.773438 -9.1875 6.238281 -9.203125 5.65625 -9.203125 L 5.296875 -9.203125 L 5.296875 -0.59375 L 6.859375 -0.390625 L 6.859375 0 Z M 2.3125 0 "/></g></g></g><g fill="#1a2b3c" fill-opacity="1"><g transform="translate(415.919028, 95.457042)"><g><path d="M 3.390625 -0.390625 L 3.390625 0 L 0.140625 0 L 0.140625 -0.390625 L 1.265625 -0.59375 L 4.609375 -9.921875 L 6.015625 -9.921875 L 9.5 -0.59375 L 10.75 -0.390625 L 10.75 0 L 6.578125 0 L 6.578125 -0.390625 L 7.90625 -0.59375 L 6.921875 -3.421875 L 3.046875 -3.421875 L 2.0625 -0.59375 Z M 4.96875 -8.859375 L 3.265625 -4.09375 L 6.703125 -4.09375 Z M 4.96875 -8.859375 "/></g></g></g><g fill="#1a2b3c" fill-opacity="1"><g transform="translate(426.906402, 95.457042)"><g><path d="M 2.3125 0 L 2.3125 -0.390625 L 3.875 -0.59375 L 3.875 -9.21875 L 3.5 -9.21875 C 2.257812 -9.21875 1.414062 -9.164062 0.96875 -9.0625 L 0.765625 -7.53125 L 0.265625 -7.53125 L 0.265625 -9.84375 L 8.9375 -9.84375 L 8.9375 -7.53125 L 8.4375 -7.53125 L 8.234375 -9.0625 C 8.085938 -9.09375 7.765625 -9.125 7.265625 -9.15625 C 6.773438 -9.1875 6.238281 -9.203125 5.65625 -9.203125 L 5.296875 -9.203125 L 5.296875 -0.59375 L 6.859375 -0.390625 L 6.859375 0 Z M 2.3125 0 "/></g></g></g><g fill="#1a2b3c" fill-opacity="1"><g transform="translate(437.887095, 95.457042)"><g><path d="M 0.4375 -0.390625 L 1.703125 -0.59375 L 1.703125 -9.265625 L 0.4375 -9.453125 L 0.4375 -9.84375 L 7.8125 -9.84375 L 7.8125 -7.484375 L 7.328125 -7.484375 L 7.09375 -9.078125 C 6.550781 -9.148438 5.757812 -9.1875 4.71875 -9.1875 L 3.109375 -9.1875 L 3.109375 -5.328125 L 5.765625 -5.328125 L 6 -6.515625 L 6.46875 -6.515625 L 6.46875 -3.484375 L 6 -3.484375 L 5.765625 -4.671875 L 3.109375 -4.671875 L 3.109375 -0.65625 L 5.046875 -0.65625 C 6.304688 -0.65625 7.132812 -0.695312 7.53125 -0.78125 L 7.953125 -2.59375 L 8.4375 -2.59375 L 8.296875 0 L 0.4375 0 Z M 0.4375 -0.390625 "/></g></g></g></svg>